<svg width="643" height="399" viewBox="0 0 643 399" fill="none" xmlns="http://www.w3.org/2000/svg">
<path opacity="0.07" d="M534.797 371.486C532.097 371.486 628.497 162.686 524.997 192.386C421.497 222.086 404.597 230.986 422.397 160.486C440.197 89.9862 385.797 -73.2138 301.097 37.3862C216.397 147.986 98.5968 80.1862 84.2968 141.786C69.9968 203.386 137.797 217.586 94.9968 244.386C52.1968 271.186 78.8968 371.486 78.8968 371.486H534.797Z" fill="#F4962A"/>
<path d="M633.798 398.186H9.99823C4.89823 398.186 0.698242 393.986 0.698242 388.886V380.786C0.698242 375.686 4.89823 371.486 9.99823 371.486H633.698C638.798 371.486 642.998 375.686 642.998 380.786V388.886C643.098 394.086 638.898 398.186 633.798 398.186Z" fill="#D3D3D3"/>
<path d="M154.898 319.394H199.298V372.157H154.898V319.394Z" fill="#FB9016"/>
<path d="M156.198 367.214C146.098 367.214 137.798 358.941 137.798 348.651C137.798 338.36 145.998 330.088 156.198 330.088C166.398 330.088 174.598 338.36 174.598 348.651C174.598 358.941 166.398 367.214 156.198 367.214ZM156.198 334.224C148.298 334.224 141.798 340.681 141.798 348.752C141.798 356.823 148.198 363.279 156.198 363.279C164.198 363.279 170.598 356.823 170.598 348.752C170.598 340.681 164.098 334.224 156.198 334.224Z" fill="#FB9016"/>
<g opacity="0.41">
<path d="M184.098 315.963C183.598 315.963 183.198 315.762 182.898 315.358C182.698 315.055 178.098 308.8 179.498 301.94C180.298 298.006 182.898 294.676 187.098 292.154C192.098 289.228 192.398 287.312 192.298 286.706C192.098 285.092 188.898 283.68 187.398 283.276C186.598 283.074 186.098 282.267 186.298 281.46C186.498 280.653 187.298 280.149 188.098 280.35C188.798 280.552 194.598 282.267 195.198 286.303C195.598 289.128 193.398 291.851 188.498 294.777C184.998 296.896 182.898 299.519 182.298 302.545C181.198 308.094 185.198 313.441 185.198 313.542C185.698 314.248 185.598 315.156 184.898 315.661C184.698 315.863 184.398 315.963 184.098 315.963Z" fill="#FB9016"/>
</g>
<g opacity="0.41">
<path d="M167.598 314.45C166.898 314.45 166.298 313.946 166.098 313.34C165.898 312.533 166.398 311.726 167.198 311.524C169.398 311.02 169.698 310.415 169.698 310.415C169.698 310.011 169.198 308.498 160.998 303.655C158.698 302.344 158.398 300.729 158.398 299.62C158.698 294.575 169.698 289.632 171.898 288.724C172.698 288.421 173.498 288.724 173.898 289.531C174.198 290.338 173.898 291.145 173.098 291.549C167.598 293.97 161.498 297.804 161.398 299.922C161.398 300.326 161.698 300.729 162.498 301.133C169.198 305.068 173.098 307.993 172.598 310.919C172.198 313.441 168.898 314.248 167.898 314.551C167.798 314.45 167.698 314.45 167.598 314.45Z" fill="#FB9016"/>
</g>
<g opacity="0.41">
<path d="M175.898 281.258C175.498 281.258 175.198 281.157 174.898 280.855C174.298 280.249 174.298 279.342 174.798 278.736C175.598 277.929 177.698 275.003 177.198 273.187C176.998 272.38 176.098 271.674 174.698 271.271C172.098 270.463 171.298 268.95 171.098 267.74C170.298 263.401 176.998 257.954 178.398 256.844C179.098 256.339 179.998 256.44 180.498 257.146C180.998 257.853 180.898 258.761 180.198 259.265C177.498 261.384 173.698 265.318 173.998 267.235C174.098 267.74 174.598 268.042 175.498 268.345C177.998 269.152 179.498 270.463 179.998 272.38C180.998 276.214 177.298 280.25 176.898 280.754C176.698 281.158 176.298 281.258 175.898 281.258Z" fill="#FB9016"/>
</g>
<path d="M384.898 255.23C385.798 242.921 386.398 231.42 386.798 220.726C383.898 219.112 380.298 217.296 377.498 215.985C368.798 211.747 356.598 206.098 348.798 202.466C344.198 200.347 339.698 198.834 339.698 198.834C339.698 198.834 308.498 195.807 305.898 196.009C305.098 196.009 301.198 197.421 296.098 199.439C284.998 203.676 263.698 212.353 260.298 214.774C255.298 218.406 237.498 306.581 236.998 312.634C236.498 318.486 261.298 326.456 284.198 332.509C284.198 341.488 283.998 353.998 283.798 365.398C283.798 367.315 283.698 369.232 283.698 371.148H383.898C383.798 369.232 383.598 367.214 383.498 365.398V364.692C383.098 356.923 381.598 343.102 381.998 329.583C381.998 329.583 381.798 315.358 383.198 309.204C383.298 282.065 384.898 255.23 384.898 255.23ZM257.798 307.186C257.998 295.685 273.098 274.297 273.098 274.297L273.798 273.995L274.598 273.894L276.998 271.674C277.598 273.692 282.598 302.545 283.798 319.394C269.598 316.569 257.798 312.634 257.798 307.186Z" fill="#D3D3D3"/>
<path d="M386.798 365.398C386.098 360.656 385.498 355.814 384.998 351.173V351.072C384.798 349.559 384.598 347.945 384.498 346.431V346.229C383.798 339.773 383.198 333.619 382.698 327.969C382.398 323.631 382.698 319.394 383.298 315.257C384.998 286.303 385.898 255.734 385.898 255.734C386.798 243.224 387.298 231.521 387.698 220.625C387.698 220.625 348.498 201.961 344.898 200.852C344.898 200.852 352.298 218.507 357.898 257.853C359.998 272.986 363.998 298.409 366.898 324.438C368.498 338.461 371.398 352.787 373.598 365.398C373.898 367.315 374.298 369.232 374.598 371.149H387.598C387.298 369.232 386.998 367.315 386.798 365.398ZM321.498 318.889C322.998 304.261 324.398 289.632 323.798 281.662C318.398 217.296 303.098 200.246 300.898 197.724C299.198 198.43 292.698 200.852 290.698 201.659C280.198 205.795 258.898 213.463 255.998 215.581C250.998 219.213 231.398 311.726 230.798 317.679C230.398 321.714 256.098 330.189 282.198 337.755C281.998 345.019 282.598 355.208 280.298 365.902C279.898 367.819 279.298 369.03 279.198 371.451L315.598 371.149C315.798 369.232 316.098 367.315 316.298 365.398C316.998 359.647 317.698 353.796 318.398 347.44C329.298 350.265 336.798 352.182 336.798 352.182C336.798 352.182 347.098 334.628 350.098 327.565C350.498 326.355 337.298 323.126 321.498 318.889ZM274.298 296.694C273.998 283.478 273.998 274.297 273.998 274.297C275.298 278.837 277.098 291.751 278.698 304.563C273.298 301.94 274.298 299.418 274.298 296.694Z" fill="#FB9016"/>
<path d="M304.298 197.018C304.298 197.018 308.298 189.451 307.198 167.963C306.898 162.01 338.198 182.087 338.198 182.087C338.198 182.087 338.098 184.104 337.998 186.929C337.998 188.039 337.898 189.351 337.898 190.662V193.487C337.898 194.193 337.898 194.899 337.998 195.606C337.998 196.413 338.098 197.119 338.198 197.825C338.298 199.137 339.098 201.457 339.398 202.062C340.798 205.291 315.998 205.492 304.298 197.018Z" fill="#FFE6CA"/>
<path d="M336.698 203.475L330.598 210.739C330.598 210.739 320.698 208.822 317.798 203.576C314.798 198.33 336.698 203.475 336.698 203.475Z" fill="#FFE6CA"/>
<path d="M396.098 278.938C387.198 266.024 378.798 262.897 378.798 262.897C378.798 262.897 352.598 231.925 373.598 218.103C373.598 218.103 382.598 217.902 387.598 220.625C392.698 223.45 403.498 246.251 405.398 250.286C407.198 254.322 407.498 260.577 408.798 261.485C408.698 261.384 410.998 277.526 396.098 278.938Z" fill="#FB9016"/>
<path d="M362.298 359.95C362.298 359.95 359.598 359.849 358.498 359.244C358.498 359.244 356.498 357.932 354.998 357.125C354.498 356.823 354.098 356.621 353.798 356.52C352.598 356.016 349.898 355.41 347.398 353.493C344.898 351.577 336.698 343.909 336.698 343.909L341.998 335.737L344.398 327.666C344.398 327.666 363.398 329.583 365.998 331.097C366.198 331.197 366.498 331.399 366.698 331.601C368.698 333.114 369.598 335.031 370.598 335.939C370.998 336.242 374.298 339.874 374.098 341.286C373.798 343.304 372.898 344.615 371.598 345.221C371.598 345.221 370.898 349.155 368.898 350.87C368.898 350.87 368.398 354.502 365.298 356.016C365.298 355.915 364.398 359.547 362.298 359.95ZM320.998 112.878C320.998 112.878 352.598 96.7366 355.498 141.228C358.398 185.618 351.198 191.066 328.798 187.333C306.398 183.701 301.398 155.957 297.098 142.842C292.798 129.827 310.398 116.107 320.998 112.878Z" fill="#FFE6CA"/>
<path d="M313.898 142.943C313.398 139.109 305.798 137.797 305.298 143.548C304.798 149.399 308.998 159.488 311.798 158.378C314.598 157.37 314.598 148.29 313.898 142.943Z" fill="#FFE6CA"/>
<path d="M304.198 164.331C304.198 164.331 301.698 150.711 306.498 149.097C311.198 147.483 313.298 152.628 313.298 152.628L318.398 152.325C318.398 152.325 313.898 141.026 318.298 137.697C322.598 134.468 351.298 136.183 354.298 131.744C357.298 127.305 370.298 109.953 340.898 108.944C329.598 108.54 311.898 104.908 303.998 117.62C303.998 117.62 293.298 122.16 293.398 125.893C293.398 135.477 299.498 158.378 304.198 164.331Z" fill="#70410B"/>
<path d="M350.998 327.565L336.798 352.182C336.798 352.182 299.198 342.396 290.398 339.874L310.498 315.762C310.398 315.863 339.998 322.622 350.998 327.565Z" fill="#FB9016"/>
<path d="M338.098 193.184C319.598 191.267 312.498 176.942 312.498 176.942C324.098 188.543 337.998 188.241 337.998 188.241V191.066C337.998 191.772 337.998 192.478 338.098 193.184Z" fill="#FCD9B1"/>
<path d="M341.998 194.193C341.998 194.193 342.998 196.009 343.798 196.614C343.798 196.614 345.398 197.623 346.398 198.329C346.698 198.531 346.998 198.834 347.198 198.935C347.898 199.641 349.298 201.255 351.398 202.466C353.598 203.576 361.598 206.804 361.598 206.804L365.498 200.347L370.298 195.908C370.298 195.908 362.698 183.096 360.798 181.784L360.198 181.481C358.498 180.573 356.798 180.573 355.898 180.17C355.498 180.069 351.998 178.858 350.998 179.464C349.698 180.271 349.098 181.481 349.098 182.49C349.098 182.49 346.598 184.306 345.998 186.223C345.998 186.223 343.598 187.736 343.698 190.46C343.798 190.662 341.498 192.579 341.998 194.193Z" fill="#FFE6CA"/>
<path d="M370.998 192.579C370.998 192.579 401.998 239.996 403.798 253.615C405.598 267.235 397.098 273.087 389.798 268.648C382.598 264.209 358.798 208.116 358.798 208.116L370.998 192.579Z" fill="#FB9016"/>
<path d="M463.198 57.088C415.998 57.088 377.798 79.384 377.798 106.926C377.798 117.62 383.598 127.608 393.498 135.679L392.198 146.877L402.698 142.035C418.198 151.114 439.598 156.663 463.198 156.663C510.398 156.663 548.598 134.367 548.598 106.825C548.598 79.2831 510.398 57.088 463.198 57.088Z" fill="#70410B"/>
<path d="M436.298 277.223L426.298 371.35H558.298L568.398 277.223H436.298Z" fill="#F4962A"/>
<path d="M437.834 371.266H415.734V362.791H437.834V371.266Z" fill="#F4962A"/>
<path d="M489.998 352.989C488.898 358.235 491.398 363.178 495.398 363.986C499.398 364.793 503.598 361.262 504.698 356.015C505.798 350.769 503.298 345.826 499.298 345.019C495.198 344.212 491.098 347.743 489.998 352.989Z" fill="#D3D3D3"/>
</svg>
