<svg width="50" height="51" viewBox="0 0 50 51" fill="none" xmlns="http://www.w3.org/2000/svg">
<path fill-rule="evenodd" clipRule="evenodd" d="M16.6667 43.0376C16.6667 41.6428 16.1125 40.3053 15.1271 39.3188C14.1406 38.3334 12.8031 37.7792 11.4083 37.7792C10.7542 37.7792 10.0792 37.7792 9.42499 37.7792C8.0302 37.7792 6.6927 38.3334 5.70624 39.3188C4.72082 40.3053 4.16666 41.6428 4.16666 43.0376C4.16666 43.398 4.16666 43.7355 4.16666 44.0292C4.16666 45.1803 5.09895 46.1126 6.24999 46.1126H14.5833C15.7344 46.1126 16.6667 45.1803 16.6667 44.0292C16.6667 43.7355 16.6667 43.398 16.6667 43.0376ZM14.5833 44.0292H6.24999V43.0376C6.24999 42.1949 6.58437 41.3876 7.1802 40.7928C7.77499 40.1969 8.58228 39.8626 9.42499 39.8626H11.4083C12.251 39.8626 13.0583 40.1969 13.6531 40.7928C14.2489 41.3876 14.5833 42.1949 14.5833 43.0376V44.0292ZM31.25 44.0292V42.9657C31.25 40.1011 28.9281 37.7792 26.0635 37.7792H23.9364C21.0719 37.7792 18.75 40.1011 18.75 42.9657C18.75 43.3532 18.75 43.7167 18.75 44.0292C18.75 45.1803 19.6823 46.1126 20.8333 46.1126H29.1667C30.3177 46.1126 31.25 45.1803 31.25 44.0292ZM29.1667 44.0292H20.8333V42.9657C20.8333 41.2521 22.2229 39.8626 23.9364 39.8626H26.0635C27.7771 39.8626 29.1667 41.2521 29.1667 42.9657V44.0292ZM31.25 25.2792V24.2157C31.25 21.3511 28.9281 19.0292 26.0635 19.0292H23.9364C21.0719 19.0292 18.75 21.3511 18.75 24.2157C18.75 24.6032 18.75 24.9667 18.75 25.2792C18.75 26.4303 19.6823 27.3626 20.8333 27.3626H29.1667C30.3177 27.3626 31.25 26.4303 31.25 25.2792ZM29.1667 25.2792H20.8333V24.2157C20.8333 22.5021 22.2229 21.1126 23.9364 21.1126H26.0635C27.7771 21.1126 29.1667 22.5021 29.1667 24.2157V25.2792ZM45.8333 42.9688C45.8333 41.5928 45.2865 40.273 44.3135 39.299C43.3396 38.3261 42.0198 37.7792 40.6437 37.7792C39.9458 37.7792 39.2208 37.7792 38.5229 37.7792C37.1469 37.7792 35.8271 38.3261 34.8531 39.299C33.8802 40.273 33.3333 41.5928 33.3333 42.9688C33.3333 43.3553 33.3333 43.7178 33.3333 44.0292C33.3333 45.1803 34.2656 46.1126 35.4167 46.1126H43.75C44.901 46.1126 45.8333 45.1803 45.8333 44.0292C45.8333 43.7178 45.8333 43.3553 45.8333 42.9688ZM43.75 44.0292H35.4167V42.9688C35.4167 42.1449 35.7437 41.3553 36.326 40.7719C36.9094 40.1896 37.6989 39.8626 38.5229 39.8626H40.6437C41.4677 39.8626 42.2573 40.1896 42.8406 40.7719C43.4229 41.3553 43.75 42.1449 43.75 42.9688V44.0292ZM10.4167 29.4459C8.11666 29.4459 6.24999 31.3126 6.24999 33.6126C6.24999 35.9126 8.11666 37.7792 10.4167 37.7792C12.7167 37.7792 14.5833 35.9126 14.5833 33.6126C14.5833 31.3126 12.7167 29.4459 10.4167 29.4459ZM10.4167 31.5292C11.5667 31.5292 12.5 32.4626 12.5 33.6126C12.5 34.7626 11.5667 35.6959 10.4167 35.6959C9.26666 35.6959 8.33332 34.7626 8.33332 33.6126C8.33332 32.4626 9.26666 31.5292 10.4167 31.5292ZM25 29.4459C22.7 29.4459 20.8333 31.3126 20.8333 33.6126C20.8333 35.9126 22.7 37.7792 25 37.7792C27.3 37.7792 29.1667 35.9126 29.1667 33.6126C29.1667 31.3126 27.3 29.4459 25 29.4459ZM25 31.5292C26.15 31.5292 27.0833 32.4626 27.0833 33.6126C27.0833 34.7626 26.15 35.6959 25 35.6959C23.85 35.6959 22.9167 34.7626 22.9167 33.6126C22.9167 32.4626 23.85 31.5292 25 31.5292ZM25 10.6959C22.7 10.6959 20.8333 12.5626 20.8333 14.8626C20.8333 17.1626 22.7 19.0292 25 19.0292C27.3 19.0292 29.1667 17.1626 29.1667 14.8626C29.1667 12.5626 27.3 10.6959 25 10.6959ZM25 12.7792C26.15 12.7792 27.0833 13.7126 27.0833 14.8626C27.0833 16.0126 26.15 16.9459 25 16.9459C23.85 16.9459 22.9167 16.0126 22.9167 14.8626C22.9167 13.7126 23.85 12.7792 25 12.7792Z" fill="#FB9016" fill-opacity="0.937255"/>
<path fill-rule="evenodd" clipRule="evenodd" d="M39.5833 29.4459C37.2833 29.4459 35.4167 31.3126 35.4167 33.6126C35.4167 35.9126 37.2833 37.7792 39.5833 37.7792C41.8833 37.7792 43.75 35.9126 43.75 33.6126C43.75 31.3126 41.8833 29.4459 39.5833 29.4459ZM39.5833 31.5292C40.7333 31.5292 41.6667 32.4626 41.6667 33.6126C41.6667 34.7626 40.7333 35.6959 39.5833 35.6959C38.4333 35.6959 37.5 34.7626 37.5 33.6126C37.5 32.4626 38.4333 31.5292 39.5833 31.5292ZM9.37499 6.52923H40.625V17.9876H33.3615C32.7865 17.9876 32.3198 18.4542 32.3198 19.0292C32.3198 19.6042 32.7865 20.0709 33.3615 20.0709H40.625V21.1126C40.625 21.3886 40.5156 21.6542 40.3198 21.849C40.125 22.0449 39.8594 22.1542 39.5833 22.1542H34.3906C33.8156 22.1542 33.3489 22.6209 33.3489 23.1959C33.3489 23.7709 33.8156 24.2376 34.3906 24.2376H39.5833C40.4125 24.2376 41.2073 23.9084 41.7927 23.3219C42.3792 22.7365 42.7083 21.9417 42.7083 21.1126V6.52923H44.7917C45.3667 6.52923 45.8333 6.06256 45.8333 5.48756C45.8333 4.91256 45.3667 4.44589 44.7917 4.44589H5.20832C4.63332 4.44589 4.16666 4.91256 4.16666 5.48756C4.16666 6.06256 4.63332 6.52923 5.20832 6.52923H7.29166V21.1126C7.29166 21.9417 7.62082 22.7365 8.20728 23.3219C8.7927 23.9084 9.58749 24.2376 10.4167 24.2376C11.7021 24.2376 13.5052 24.2376 15.6021 24.2376C16.1771 24.2376 16.6437 23.7709 16.6437 23.1959C16.6437 22.6209 16.1771 22.1542 15.6021 22.1542C13.5052 22.1542 11.7021 22.1542 10.4167 22.1542C10.1406 22.1542 9.87499 22.0449 9.6802 21.849C9.48437 21.6542 9.37499 21.3886 9.37499 21.1126V20.0709H17.6885C18.2635 20.0709 18.7302 19.6042 18.7302 19.0292C18.7302 18.4542 18.2635 17.9876 17.6885 17.9876H9.37499V6.52923Z" fill="#FB9016" fill-opacity="0.937255"/>
</svg>
