<svg width="50" height="51" viewBox="0 0 50 51" fill="none" xmlns="http://www.w3.org/2000/svg">
<g clip-path="url(#clip0_75_37)">
<path d="M42.1875 7.31049H35.0773C34.7141 5.53002 33.1359 4.18549 31.25 4.18549H29.6227C29.2492 1.97142 27.3188 0.279236 25 0.279236C22.6812 0.279236 20.7508 1.97142 20.3773 4.18549H18.75C16.8641 4.18549 15.2859 5.53002 14.9227 7.31049H7.8125C6.52031 7.31049 5.46875 8.36205 5.46875 9.65424V47.9355C5.46875 49.2277 6.52031 50.2792 7.8125 50.2792H42.1875C43.4797 50.2792 44.5312 49.2277 44.5312 47.9355V9.65424C44.5312 8.36205 43.4797 7.31049 42.1875 7.31049ZM42.9688 47.9355C42.9688 48.3667 42.618 48.7167 42.1875 48.7167H7.8125C7.38203 48.7167 7.03125 48.3667 7.03125 47.9355V9.65424C7.03125 9.22299 7.38203 8.87299 7.8125 8.87299H8.59375V15.123C8.59375 15.555 8.94375 15.9042 9.375 15.9042C9.80625 15.9042 10.1562 15.555 10.1562 15.123V8.87299H14.8438V11.998C14.8438 12.8597 15.5445 13.5605 16.4062 13.5605H29.6875C30.1187 13.5605 30.4688 13.2113 30.4688 12.7792C30.4688 12.3472 30.1187 11.998 29.6875 11.998H16.4062V8.09174C16.4062 6.79955 17.4578 5.74799 18.75 5.74799H21.0938C21.525 5.74799 21.875 5.39877 21.875 4.96674C21.875 3.2433 23.2766 1.84174 25 1.84174C26.7234 1.84174 28.125 3.2433 28.125 4.96674C28.125 5.39877 28.475 5.74799 28.9062 5.74799H31.25C32.5422 5.74799 33.593 6.79877 33.5938 8.09017V8.09174V8.0933V11.998H32.0312C31.6 11.998 31.25 12.3472 31.25 12.7792C31.25 13.2113 31.6 13.5605 32.0312 13.5605H33.5938C34.4555 13.5605 35.1562 12.8597 35.1562 11.998V8.87299H39.8438V44.0292H36.7188C36.2875 44.0292 35.9375 44.3785 35.9375 44.8105C35.9375 45.2425 36.2875 45.5917 36.7188 45.5917H39.8438V46.373H10.1562V45.5917H34.375C34.8062 45.5917 35.1562 45.2425 35.1562 44.8105C35.1562 44.3785 34.8062 44.0292 34.375 44.0292H10.1562V18.248C10.1562 17.816 9.80625 17.4667 9.375 17.4667C8.94375 17.4667 8.59375 17.816 8.59375 18.248V44.8105V47.1542C8.59375 47.5863 8.94375 47.9355 9.375 47.9355H40.625C41.0563 47.9355 41.4062 47.5863 41.4062 47.1542V44.8105V8.87299H42.1875C42.618 8.87299 42.9688 9.22299 42.9688 9.65424V47.9355Z" fill="#FB9016" fill-opacity="0.937255"/>
<path d="M11.3313 34.5511C11.4531 34.6214 11.5867 34.6542 11.718 34.6542C11.9891 34.6542 12.2531 34.5128 12.3969 34.2605L15.0148 29.68L17.4164 32.0816C17.5906 32.255 17.8367 32.337 18.0805 32.3027C18.3242 32.2675 18.5367 32.1199 18.6547 31.9027L22.8422 24.2261L25.2289 26.6128C25.3992 26.7831 25.6398 26.866 25.8766 26.8355C26.1156 26.8066 26.3273 26.6683 26.4508 26.462L30.4688 19.766L32.143 22.5558C32.282 22.7878 32.532 22.9308 32.8023 22.9347C33.0898 22.9292 33.3266 22.8011 33.4719 22.573L37.5 16.2441V17.4667C37.5 17.8988 37.85 18.248 38.2813 18.248C38.7125 18.248 39.0625 17.8988 39.0625 17.4667V13.5605C39.0625 13.3011 38.9336 13.0589 38.7195 12.9136C38.5047 12.7683 38.232 12.7394 37.9914 12.8347L34.0852 14.3972C33.6844 14.5574 33.4898 15.012 33.65 15.4128C33.8109 15.8144 34.2648 16.0097 34.6656 15.8488L36.3211 15.1863L32.832 20.6683L31.1391 17.8464C30.857 17.3761 30.0813 17.3761 29.7992 17.8464L25.6266 24.8011L23.2094 22.3831C23.0352 22.2089 22.7875 22.1253 22.5453 22.162C22.3016 22.1972 22.0891 22.3449 21.9711 22.562L17.7836 30.2386L15.3969 27.8519C15.225 27.68 14.9836 27.5972 14.7406 27.63C14.4992 27.662 14.2867 27.8058 14.1664 28.0167L11.0414 33.4855C10.8266 33.8597 10.9563 34.337 11.3313 34.5511ZM25 2.62299C23.7078 2.62299 22.6563 3.67455 22.6563 4.96674C22.6563 6.25892 23.7078 7.31049 25 7.31049C26.2922 7.31049 27.3438 6.25892 27.3438 4.96674C27.3438 3.67455 26.2922 2.62299 25 2.62299ZM25 5.74799C24.5695 5.74799 24.2188 5.39799 24.2188 4.96674C24.2188 4.53549 24.5695 4.18549 25 4.18549C25.4305 4.18549 25.7813 4.53549 25.7813 4.96674C25.7813 5.39799 25.4305 5.74799 25 5.74799Z" fill="#FB9016" fill-opacity="0.937255"/>
<path d="M16.4062 33.873H14.0625C13.6313 33.873 13.2812 34.2222 13.2812 34.6542V41.6855C13.2812 42.1175 13.6313 42.4667 14.0625 42.4667H16.4062C16.8375 42.4667 17.1875 42.1175 17.1875 41.6855V34.6542C17.1875 34.2222 16.8375 33.873 16.4062 33.873ZM15.625 40.9042H14.8438V35.4355H15.625V40.9042ZM21.0938 36.2167H18.75C18.3187 36.2167 17.9688 36.566 17.9688 36.998V41.6855C17.9688 42.1175 18.3187 42.4667 18.75 42.4667H21.0938C21.525 42.4667 21.875 42.1175 21.875 41.6855V36.998C21.875 36.566 21.525 36.2167 21.0938 36.2167ZM20.3125 40.9042H19.5312V37.7792H20.3125V40.9042ZM25.7812 27.623H23.4375C23.0063 27.623 22.6562 27.9722 22.6562 28.4042V41.6855C22.6562 42.1175 23.0063 42.4667 23.4375 42.4667H25.7812C26.2125 42.4667 26.5625 42.1175 26.5625 41.6855V28.4042C26.5625 27.9722 26.2125 27.623 25.7812 27.623ZM25 40.9042H24.2188V29.1855H25V40.9042ZM30.4688 28.4042H28.125C27.6938 28.4042 27.3438 28.7535 27.3438 29.1855V41.6855C27.3438 42.1175 27.6938 42.4667 28.125 42.4667H30.4688C30.9 42.4667 31.25 42.1175 31.25 41.6855V29.1855C31.25 28.7535 30.9 28.4042 30.4688 28.4042ZM29.6875 40.9042H28.9062V29.9667H29.6875V40.9042ZM35.1562 23.7167H32.8125C32.3813 23.7167 32.0312 24.066 32.0312 24.498V41.6855C32.0312 42.1175 32.3813 42.4667 32.8125 42.4667H35.1562C35.5875 42.4667 35.9375 42.1175 35.9375 41.6855V24.498C35.9375 24.066 35.5875 23.7167 35.1562 23.7167ZM34.375 40.9042H33.5938V25.2792H34.375V40.9042Z" fill="#FB9016" fill-opacity="0.937255"/>
</g>
<defs>
<clipPath id="clip0_75_37">
<rect width="50" height="50" fill="white" transform="translate(0 0.279236)"/>
</clipPath>
</defs>
</svg>
