<svg width="50" height="51" viewBox="0 0 50 51" fill="none" xmlns="http://www.w3.org/2000/svg">
<g clip-path="url(#clip0_75_78)">
<path d="M27.4563 2.50424L27.4078 3.2308C27.3875 3.55112 27.2313 3.78549 26.9203 4.0058C26.6078 4.22455 26.1469 4.37455 25.7359 4.40268H21.8047C19.4984 4.40268 17.575 6.05737 17.1297 8.24487C17.0672 8.55737 17.0312 8.88081 17.0312 9.21205V12.7949C17.0312 12.9074 17.0344 12.9386 17.0344 12.8371C17.0344 12.7777 17.0312 12.7746 17.0312 12.8839V14.4277C17.0248 14.4853 17.0248 14.5435 17.0312 14.6011V17.7167C17.0312 19.6292 17.7234 21.3621 18.8281 22.7433V26.9542L18.7781 27.1496L9.92188 32.1949C8.8097 32.8282 7.88481 33.7444 7.24104 34.8505C6.59726 35.9567 6.25751 37.2135 6.25625 38.4933V47.1449H24.2375V47.1574H25.8V47.1449H43.7438V38.3199C43.7423 37.2697 43.5029 36.2335 43.0437 35.289C42.5845 34.3446 41.9173 33.5164 41.0922 32.8667C45.0187 32.1199 48.3203 29.2871 49.5234 25.3464C50.047 23.6299 50.1399 21.8109 49.7941 20.0499C49.4482 18.2889 48.6742 16.6402 47.5403 15.2492C46.4064 13.8582 44.9475 12.7677 43.2924 12.074C41.6373 11.3802 39.8368 11.1046 38.05 11.2714C36.2306 11.4434 34.4835 12.0693 32.9688 13.0917V12.8839C32.9688 12.7949 32.9656 12.8105 32.9656 12.848C32.9656 12.8839 32.9688 12.9074 32.9688 12.8058V7.5058L32.9625 7.45424C32.7859 6.10737 32.3719 4.88862 31.5828 3.97143C30.7937 3.05424 29.6063 2.50268 28.1828 2.51049V2.50424H27.4563ZM28.4703 4.18237C29.3016 4.25112 29.9516 4.4683 30.3984 4.98862C30.9078 5.57924 31.2547 6.49799 31.4062 7.63705V12.798C31.4062 12.7027 31.4031 12.7308 31.4031 12.8339C31.4031 12.9542 31.4062 12.9589 31.4062 12.8808V13.2527C31.0029 13.0289 30.5668 12.8702 30.1141 12.7824C29.0672 12.5902 27.9828 12.673 26.9422 12.7183C25.9 12.7621 24.9078 12.7683 24.0969 12.5449C23.2844 12.3214 22.65 11.923 22.1125 10.998C22.0403 10.8731 21.9349 10.7706 21.8081 10.702C21.6812 10.6333 21.5378 10.6011 21.3938 10.6089V10.6121C21.2292 10.621 21.0717 10.6817 20.9437 10.7855C20.8157 10.8893 20.7239 11.031 20.6812 11.1902C20.7031 11.1074 20.5562 11.4152 20.3094 11.7074C20.0162 12.048 19.7003 12.3685 19.3641 12.6667C19.1016 12.9011 18.8453 13.0808 18.5938 13.2589V12.8792C18.5938 12.9652 18.5969 12.9449 18.5969 12.8371C18.5965 12.8214 18.5955 12.8058 18.5938 12.7902V9.21049C18.5938 7.3933 20.0156 5.96362 21.8047 5.96362H25.8359C26.5472 5.92221 27.2336 5.68659 27.8203 5.28237C28.1562 5.04487 28.2578 4.57143 28.4703 4.18393V4.18237ZM7.09844 4.96362C6.62638 5.00725 6.15933 5.09407 5.70312 5.22299C5.38125 6.04799 5.11875 6.91049 4.89531 7.78549H7.09844V4.96518V4.96362ZM8.52656 4.96362V7.78705H10.6719C10.4528 6.91168 10.1799 6.05067 9.85469 5.20893C9.41989 5.08899 8.97552 5.00691 8.52656 4.96362ZM11.6234 5.92455C11.8203 6.53549 11.9984 7.1558 12.1484 7.78705H13.8672C13.2414 7.03226 12.4805 6.40066 11.6234 5.92455ZM3.925 5.9683C3.09688 6.44018 2.36094 7.05424 1.75781 7.78393H3.41875C3.56562 7.1683 3.73438 6.56518 3.925 5.9683ZM0.826562 9.21205C0.370387 10.1012 0.0897534 11.0699 0 12.0652H2.80156C2.84844 11.1042 2.95781 10.1527 3.12188 9.21205H0.826562ZM4.575 9.21205C4.40048 10.1547 4.28826 11.1078 4.23906 12.0652H7.09844V9.21205H4.575ZM8.52656 9.21205V12.0652H11.3281C11.2788 11.1078 11.1666 10.1547 10.9922 9.21205H8.52656ZM12.4453 9.21205C12.6094 10.1527 12.7188 11.1042 12.7656 12.0652H15.625C15.5345 11.0698 15.2533 10.1012 14.7969 9.21205H12.4453ZM21.5359 12.6636C22.1766 13.3292 22.8953 13.8355 23.6812 14.0511C24.7969 14.3589 25.9422 14.3277 27.0094 14.2839C28.075 14.2402 29.0703 14.1808 29.8344 14.3199C30.5453 14.4511 31.0203 14.6949 31.4062 15.2855V17.7136C31.4062 21.3183 28.5578 24.1902 25 24.1902C21.4422 24.1902 18.5938 21.3183 18.5938 17.7136V15.1105C18.7828 15.023 18.9609 14.9167 19.15 14.7964C19.5656 14.5324 19.9937 14.1949 20.4 13.8324C20.8078 13.4699 21.1922 13.0839 21.5031 12.7183C21.5187 12.6996 21.5219 12.6808 21.5359 12.6636ZM39.7 12.8042C41.2432 12.9098 42.7361 13.3962 44.0453 14.2199C45.7818 15.3068 47.1138 16.9333 47.837 18.85C48.5602 20.7667 48.6347 22.8677 48.0491 24.8308C47.4634 26.7939 46.2499 28.5107 44.5947 29.7178C42.9396 30.925 40.9341 31.5558 38.8859 31.5136L31.1703 27.1199V22.7433C32.3266 21.3227 32.9609 19.5485 32.9672 17.7167V15.0652C34.828 13.4564 37.2454 12.6443 39.7 12.8042ZM0 13.4933C0.09375 14.5152 0.38125 15.4761 0.828125 16.3464H3.0125C2.87092 15.4017 2.79314 14.4485 2.77969 13.4933H0ZM4.21875 13.4933C4.23438 14.4511 4.30469 15.4042 4.45625 16.3464H7.09844V13.4933H4.21719H4.21875ZM8.52656 13.4933V16.3464H11.1078C11.2594 15.4042 11.3344 14.4511 11.35 13.4933H8.52656ZM12.7844 13.4933C12.7723 14.4484 12.6955 15.4017 12.5547 16.3464H14.7984C15.2437 15.4761 15.5328 14.5152 15.625 13.4933H12.7844ZM35.1984 15.9042V15.9199H35.1625V17.4824H36.7672C38.225 17.4824 38.9625 18.1714 39.2266 19.0292H35.1984V20.5917H39.2266C38.9625 21.4496 38.2266 22.1417 36.7672 22.1417H35.1609V23.7042H35.6234L40.3891 28.4042L41.4891 27.2949L37.7469 23.6011C39.4422 23.2449 40.5297 21.9839 40.8297 20.5917H42.9625V19.0292H40.8297C40.7078 18.4667 40.4453 17.9355 40.0797 17.4667H42.9625V15.9042H35.1984ZM1.75781 17.7746C2.31562 18.4496 2.99062 19.0246 3.74219 19.4808C3.56562 18.9183 3.41563 18.348 3.2875 17.7746H1.75781ZM4.75469 17.7746C4.96406 18.6339 5.21875 19.4777 5.55469 20.2964C6.05 20.4449 6.56563 20.5464 7.09844 20.5949V17.7746H4.75469ZM8.52656 17.7746V20.5949C9.03594 20.5496 9.52969 20.4542 10.0062 20.3136C10.3453 19.4917 10.6016 18.6417 10.8125 17.7746H8.52656ZM12.2797 17.7746C12.1469 18.3636 11.9922 18.9464 11.8109 19.5246C12.5922 19.0589 13.2906 18.4714 13.8672 17.7746H12.2797ZM20.3922 24.2542C21.6953 25.1917 23.2766 25.7542 25 25.7542C26.6562 25.7526 28.2694 25.2276 29.6094 24.2542V27.9855C28.8797 29.3402 28.2344 30.7933 26.5938 32.1886L25.0187 33.6496L23.4281 32.1027C22.1734 30.7449 20.9797 29.1386 20.3922 27.6027V24.2542ZM18.2 29.2777L17.0344 33.5714L17.0281 33.623C16.8687 34.9386 18.2703 36.0324 19.4797 35.4605H19.4859L22.8969 33.7699L24.2188 35.048V45.5824H15.0063V40.1105H13.4438V45.5824H7.81875V38.4933C7.81892 37.4892 8.08505 36.5031 8.59004 35.6353C9.09504 34.7675 9.82089 34.0489 10.6937 33.5527L18.2 29.2777ZM32.0375 29.4121L39.4563 33.6386C40.2834 34.1088 40.9712 34.7896 41.4498 35.6119C41.9285 36.4341 42.1808 37.3685 42.1813 38.3199V45.5824H36.5938V40.1105H35.0312V45.5824H25.8V35.0574L27.2031 33.7574L30.8109 35.4636H30.8172C32.0453 36.0183 33.4828 34.9621 33.3125 33.623L33.3031 33.5496L33.2828 33.4824C33.2828 33.4824 32.8062 32.0011 32.3484 30.4886C32.2312 30.1011 32.1437 29.7777 32.0359 29.4105L32.0375 29.4121ZM19.7203 29.6339C20.3109 30.6917 20.9859 31.6746 21.775 32.5792L18.8109 34.048C18.6672 34.1152 18.5656 34.0324 18.5859 33.8214L19.7203 29.6339ZM30.4812 29.6558C30.6031 30.0839 30.7156 30.4886 30.8531 30.9464C31.2953 32.4089 31.7125 33.7121 31.75 33.8339C31.7625 34.0214 31.6438 34.1261 31.4609 34.0433L28.2922 32.5449C29.2609 31.5183 30.0031 30.5652 30.4797 29.6542L30.4812 29.6558ZM28.5906 38.3167C28.3526 38.3176 28.1247 38.4125 27.9568 38.5806C27.7889 38.7488 27.6949 38.9764 27.6953 39.2136C27.6957 39.4505 27.7904 39.6776 27.9585 39.8451C28.1266 40.0127 28.3544 40.107 28.5922 40.1074C28.8299 40.107 29.0578 40.0127 29.2259 39.8451C29.394 39.6776 29.4886 39.4505 29.4891 39.2136C29.4893 39.096 29.4662 38.9796 29.4213 38.8709C29.3763 38.7622 29.3103 38.6634 29.227 38.5801C29.1437 38.4968 29.0448 38.4307 28.9359 38.3855C28.827 38.3403 28.7086 38.3169 28.5906 38.3167ZM28.5906 41.8996C28.3532 41.9004 28.1257 41.9949 27.9579 42.1623C27.7901 42.3298 27.6957 42.5567 27.6953 42.7933C27.6951 42.9109 27.7181 43.0273 27.7631 43.136C27.8081 43.2448 27.8741 43.3436 27.9574 43.4268C28.0406 43.5101 28.1396 43.5763 28.2485 43.6214C28.3574 43.6666 28.4742 43.69 28.5922 43.6902C28.7102 43.69 28.827 43.6666 28.9359 43.6214C29.0448 43.5763 29.1437 43.5101 29.227 43.4268C29.3103 43.3436 29.3763 43.2448 29.4213 43.136C29.4662 43.0273 29.4893 42.9109 29.4891 42.7933C29.4886 42.5564 29.394 42.3293 29.2259 42.1618C29.0578 41.9943 28.8284 41.9 28.5906 41.8996Z" fill="#FB9016" fill-opacity="0.937255"/>
</g>
<defs>
<clipPath id="clip0_75_78">
<rect width="50" height="50" fill="white" transform="translate(0 0.279236)"/>
</clipPath>
</defs>
</svg>
