<svg width="50" height="51" viewBox="0 0 50 51" fill="none" xmlns="http://www.w3.org/2000/svg">
<g clip-path="url(#clip0_75_74)">
<path d="M48.125 8.27924C48.125 8.27142 48.125 8.27142 48.125 8.26361C48.125 8.18549 48.0938 8.11517 48.0469 8.04486C48.0391 8.03705 48.0391 8.02142 48.0234 8.01361L46.5469 6.41986L40.9766 0.404236H40.9687C40.9297 0.365173 40.8906 0.333923 40.8437 0.318298C40.7891 0.287048 40.7344 0.279236 40.6875 0.279236C40.6875 0.279236 40.6875 0.279236 40.6797 0.279236H15.4062C13.1953 0.279236 11.3984 2.07611 11.3984 4.28705V6.05267C6.11719 6.24799 1.875 10.6074 1.875 15.9433C1.875 21.2714 6.10938 25.6386 11.3984 25.8339V46.2714C11.3984 48.4824 13.1953 50.2792 15.4062 50.2792H44.1172C46.3281 50.2792 48.125 48.4824 48.125 46.2714V8.28705C48.1172 8.28705 48.125 8.27924 48.125 8.27924ZM2.64844 15.9433C2.64844 10.9042 6.75 6.81049 11.7891 6.81049C16.8281 6.81049 20.9219 10.9042 20.9219 15.9433C20.9219 20.9589 16.8672 25.0449 11.8672 25.0839C11.8594 25.0839 11.8594 25.0839 11.8516 25.0839H11.8203C11.8125 25.0839 11.7969 25.0761 11.7891 25.0761C11.7812 25.0761 11.7656 25.0839 11.7578 25.0839H11.7344C11.7266 25.0839 11.7266 25.0839 11.7188 25.0839C6.71094 25.037 2.64844 20.9589 2.64844 15.9433ZM44.1172 49.5136H15.4062C13.6172 49.5136 12.1641 48.0605 12.1641 46.2714V25.8339C17.4453 25.6386 21.6797 21.2714 21.6797 15.9433C21.6797 10.6152 17.4453 6.24799 12.1641 6.06049V4.28705C12.1641 2.49799 13.6172 1.04486 15.4062 1.04486H40.2969V6.12299C40.2969 7.52142 41.4375 8.66205 42.8359 8.66205H47.3516V46.2714C47.3516 48.0605 45.8984 49.5136 44.1172 49.5136Z" fill="#FB9016" fill-opacity="0.937255"/>
<path d="M41.875 44.7949H40.375V31.0995C40.375 30.8808 40.2031 30.7167 39.9922 30.7167H35.8047C35.5859 30.7167 35.4219 30.8886 35.4219 31.0995V44.7949H32.2578V35.0761C32.2578 34.8574 32.0859 34.6933 31.875 34.6933H27.6797C27.4688 34.6933 27.2969 34.8652 27.2969 35.0761V44.7949H24.1016V39.3261C24.1016 39.1074 23.9219 38.9433 23.7188 38.9433H19.5312C19.3125 38.9433 19.1484 39.1152 19.1484 39.3261V44.7949H17.1953C16.9766 44.7949 16.8125 44.9745 16.8125 45.1777C16.8125 45.3964 16.9844 45.5605 17.1953 45.5605H41.8828C42.1016 45.5605 42.2656 45.3886 42.2656 45.1777C42.2578 44.9667 42.0937 44.7949 41.875 44.7949ZM13.2891 22.8652V21.9355C13.875 21.787 14.4375 21.5605 14.9531 21.248L15.6094 21.9042C15.7891 22.0917 16.0781 22.0917 16.2578 21.9042L17.75 20.4199C17.9297 20.2324 17.9297 19.9433 17.75 19.7636L17.0938 19.1074C17.3984 18.5917 17.6328 18.037 17.7813 17.4511H18.7031C18.9531 17.4511 19.1641 17.2402 19.1641 16.9902V14.8808C19.1641 14.6308 18.9531 14.4199 18.7031 14.4199H17.7813C17.6328 13.8339 17.4062 13.2792 17.0938 12.7636L17.75 12.1074C17.9297 11.9277 17.9297 11.6386 17.75 11.4511L16.2578 9.96674C16.0781 9.78705 15.7891 9.78705 15.6094 9.96674L14.9531 10.623C14.4297 10.3183 13.875 10.0839 13.2891 9.93549V9.0058C13.2891 8.7558 13.0859 8.55267 12.8359 8.55267H10.7266C10.4766 8.55267 10.2656 8.7558 10.2656 9.0058V9.93549C9.67969 10.0839 9.125 10.3105 8.60938 10.623L7.94531 9.96674C7.76562 9.78705 7.48438 9.78705 7.29688 9.96674L5.80469 11.4589C5.625 11.6386 5.625 11.9277 5.80469 12.1074L6.46875 12.7636C6.15625 13.2792 5.92969 13.8339 5.78125 14.4199H4.85937C4.60937 14.4199 4.39844 14.6308 4.39844 14.8808V16.9902C4.39844 17.2402 4.60937 17.4511 4.85937 17.4511H5.78906C5.9375 18.037 6.15625 18.5917 6.47656 19.1074L5.8125 19.7636C5.63281 19.9433 5.63281 20.2324 5.8125 20.4199L7.30469 21.9042C7.48438 22.0917 7.77344 22.0917 7.96094 21.9042L8.61719 21.248C9.13281 21.5527 9.6875 21.787 10.2734 21.9355V22.8652C10.2734 23.1152 10.4844 23.3183 10.7344 23.3183H12.8438C13.0938 23.3183 13.2891 23.1152 13.2891 22.8652ZM14.4609 15.9433C14.4609 17.4199 13.2578 18.623 11.7812 18.623C10.3047 18.623 9.10156 17.4199 9.10156 15.9433C9.10156 14.4667 10.3047 13.2636 11.7812 13.2636C13.2656 13.2636 14.4609 14.4667 14.4609 15.9433ZM40.75 14.2402H36.9297V13.0995C36.9297 12.5839 36.5391 12.162 36.0547 12.162H32.2188C31.7344 12.162 31.3437 12.5839 31.3437 13.0995V14.2402H27.5234C26.5312 14.2402 25.7266 15.0527 25.7266 16.0605V19.0917C25.7266 19.8027 26.0859 20.4355 26.6562 20.8027V25.5995C26.6562 26.4667 27.3672 27.1777 28.2344 27.1777H40.0469C40.9141 27.1777 41.625 26.4667 41.625 25.5995V20.8027C42.1953 20.4277 42.5547 19.7949 42.5547 19.0839V16.0605C42.5547 15.0527 41.7422 14.2402 40.75 14.2402ZM32.1172 13.0995C32.1172 13.0058 32.1719 12.9277 32.2266 12.9277H36.0625C36.1094 12.9277 36.1719 12.998 36.1719 13.0995V14.2402H32.125V13.0995H32.1172ZM40.0469 26.412H28.2266C27.7812 26.412 27.4219 26.0527 27.4219 25.6074V21.1308L32.3984 22.3574V23.3652C32.3984 23.8808 32.8203 24.3027 33.3281 24.3027H34.9375C35.4531 24.3027 35.875 23.8808 35.875 23.3652V22.3495L40.8516 21.1386V25.6152C40.8516 26.0527 40.4922 26.412 40.0469 26.412ZM41.7812 19.0917C41.7812 19.6933 41.3672 20.2089 40.7734 20.3495L35.875 21.5527V21.373C35.875 20.8574 35.4531 20.4433 34.9375 20.4433H33.3281C32.8203 20.4433 32.3984 20.8574 32.3984 21.373V21.5527L27.5 20.3574C26.9062 20.2089 26.4922 19.6933 26.4922 19.0995V16.0605C26.4922 15.4824 26.9531 15.0058 27.5234 15.0058H31.7187H31.7266H31.7344H36.5312H36.5391H36.5469H40.7422C41.3125 15.0058 41.7734 15.4824 41.7734 16.0605V19.0917H41.7812Z" fill="#FB9016" fill-opacity="0.937255"/>
</g>
<defs>
<clipPath id="clip0_75_74">
<rect width="50" height="50" fill="white" transform="translate(0 0.279236)"/>
</clipPath>
</defs>
</svg>
