<svg width="50" height="51" viewBox="0 0 50 51" fill="none" xmlns="http://www.w3.org/2000/svg">
<path fill-rule="evenodd" clip-rule="evenodd" d="M20.1896 42.9876L18.1062 47.1542H15.625C15.05 47.1542 14.5833 47.6209 14.5833 48.1959C14.5833 48.7709 15.05 49.2376 15.625 49.2376H34.375C34.95 49.2376 35.4167 48.7709 35.4167 48.1959C35.4167 47.6209 34.95 47.1542 34.375 47.1542H31.8937L29.8104 42.9876H45.8333C47.5594 42.9876 48.9583 41.5886 48.9583 39.8626C48.9583 33.8771 48.9583 16.6813 48.9583 10.6959C48.9583 8.96985 47.5594 7.57089 45.8333 7.57089H4.16666C2.44061 7.57089 1.04166 8.96985 1.04166 10.6959C1.04166 16.6813 1.04166 33.8771 1.04166 39.8626C1.04166 41.5886 2.44061 42.9876 4.16666 42.9876H20.1896ZM20.4354 47.1542H29.5646L27.4812 42.9876H22.5187L20.4354 47.1542ZM46.875 36.7376V39.8626C46.875 40.4376 46.4083 40.9042 45.8333 40.9042H4.16666C3.59166 40.9042 3.12499 40.4376 3.12499 39.8626V36.7376H46.875ZM15.1604 28.9813C16.6739 27.5917 19.1729 26.3209 21.5812 26.3209H22.3656C21.9781 26.0824 21.6177 25.7907 21.2958 25.4501C20.3354 24.4313 19.7917 23.0521 19.7917 21.6126V17.1959C19.7917 15.7553 20.3354 14.3761 21.2958 13.3584C22.2781 12.3178 23.6115 11.7376 25 11.7376C26.3885 11.7376 27.7219 12.3178 28.7042 13.3584C29.6646 14.3761 30.2083 15.7553 30.2083 17.1959V21.6126C30.2083 23.0521 29.6646 24.4313 28.7042 25.4501C28.3823 25.7907 28.0219 26.0824 27.6344 26.3209H28.4187C30.8271 26.3209 33.1364 27.2782 34.8396 28.9813C36.3656 30.5063 37.2927 32.5199 37.4687 34.6542H35.376C35.2062 33.073 34.5021 31.5886 33.3667 30.4542C32.3792 29.4667 31.126 28.8042 29.776 28.5376C29.2771 30.8636 27.3448 32.5709 25.0885 32.5709C22.8219 32.5709 20.8823 30.848 20.3937 28.5053C18.9781 28.7501 17.6625 29.4251 16.6333 30.4542C15.4979 31.5886 14.7937 33.073 14.6239 34.6542C14.6239 34.6542 12.6156 34.6594 12.5 34.6542C12.5687 33.3053 13.6458 30.3699 15.1604 28.9813ZM30.2083 34.6542V33.6292C30.2083 33.0542 30.675 32.5876 31.25 32.5876C31.825 32.5876 32.2917 33.0542 32.2917 33.6292V34.6542H30.2083ZM17.7083 34.6542V33.6292C17.7083 33.0542 18.175 32.5876 18.75 32.5876C19.325 32.5876 19.7917 33.0542 19.7917 33.6292V34.6542H17.7083ZM27.6594 28.4042C27.2864 29.6063 26.2937 30.4876 25.0885 30.4876C23.8823 30.4876 22.8896 29.6063 22.5167 28.4042H27.6594ZM28.125 18.3074C27.5427 18.1511 26.8531 17.9605 26.3802 17.7428C24.8979 18.5938 23.5354 18.9771 21.875 18.848V21.6126C21.875 22.5146 22.2094 23.3824 22.8114 24.0199C23.3927 24.6355 24.1781 24.9865 25 24.9865C25.8219 24.9865 26.6073 24.6355 27.1885 24.0199C27.7906 23.3824 28.125 22.5146 28.125 21.6126V18.3074ZM39.5833 17.9876H43.75C44.325 17.9876 44.7917 17.5209 44.7917 16.9459C44.7917 16.3709 44.325 15.9042 43.75 15.9042H39.5833C39.0083 15.9042 38.5417 16.3709 38.5417 16.9459C38.5417 17.5209 39.0083 17.9876 39.5833 17.9876ZM8.33332 11.7376C6.60832 11.7376 5.20832 13.1376 5.20832 14.8626C5.20832 16.5876 6.60832 17.9876 8.33332 17.9876C10.0583 17.9876 11.4583 16.5876 11.4583 14.8626C11.4583 13.1376 10.0583 11.7376 8.33332 11.7376ZM27.9625 16.123C27.8083 15.624 27.5448 15.1657 27.1885 14.7876C26.6073 14.1719 25.8219 13.8209 25 13.8209C24.1781 13.8209 23.3927 14.1719 22.8114 14.7876C22.3073 15.3219 21.9917 16.0157 21.901 16.7563C23.3521 16.8876 24.4917 16.4907 25.8031 15.6574C26.1448 15.4407 26.5802 15.4407 26.9208 15.6574C27.0114 15.7146 27.1042 15.7709 27.1979 15.8251C27.3906 15.9365 27.6656 16.0344 27.9625 16.123ZM36.4583 13.8209H43.75C44.325 13.8209 44.7917 13.3542 44.7917 12.7792C44.7917 12.2042 44.325 11.7376 43.75 11.7376H36.4583C35.8833 11.7376 35.4167 12.2042 35.4167 12.7792C35.4167 13.3542 35.8833 13.8209 36.4583 13.8209Z" fill="#FB9016" fill-opacity="0.937255"/>
</svg>
